<?xml version="1.0" encoding="utf-8"?>
<!-- Generator: Adobe Illustrator 15.1.0, SVG Export Plug-In . SVG Version: 6.00 Build 0)  -->
<!DOCTYPE svg PUBLIC "-//W3C//DTD SVG 1.1//EN" "http://www.w3.org/Graphics/SVG/1.1/DTD/svg11.dtd">
<svg version="1.1" id="Layer_1" xmlns="http://www.w3.org/2000/svg" xmlns:xlink="http://www.w3.org/1999/xlink" x="0px" y="0px"
	 width="810.402px" height="940.912px" viewBox="0 0 810.402 940.912" enable-background="new 0 0 810.402 940.912"
	 xml:space="preserve">
<g>
	<g>
		<path fill="#4D4E53" d="M438.539,53.85l1.398,3.448c0,0-2.104,3.144,0,8.92c-13.254,3.964-8.363-7.845-8.363-7.845L438.539,53.85z
			"/>
		<path fill="#4D4E53" d="M430.254,28.979l3.646,1.978c0,0-8.109,10.637-5.059,23.802c-13.254,3.964-3.262-22.743-3.262-22.743
			L430.254,28.979z"/>
		<path fill="#4D4E53" d="M191.393,309.315l15.486,17.74c0,0-11.283-1.852-16.748,7.906c-13.256,3.961,4.23-18.132,4.23-18.132
			L191.393,309.315z"/>
		<path fill="#4D4E53" d="M171.734,304.026l9.316,22.765c0,0-5.465-2.82-10.518,2.898c-9.404-9.245,4.171-18.148,4.171-18.148
			L171.734,304.026z"/>
		<path fill="#4D4E53" d="M165.537,301.668l1.674,15.691c0,0-5.377-5.025-10.137,3.085c-9.404-9.245,3.791-18.335,3.791-18.335
			L165.537,301.668z"/>
		<path fill="#4D4E53" d="M160.248,277.956l5.113,20.098c0,0-8.904-9.784-13.664-1.675c0.529-9.608,8.98-14.435,8.98-14.435
			L160.248,277.956z"/>
		<path fill="#4D4E53" d="M389.881,26.374l3.58-3.231c0,0,0.203,11.581,13.168,15.396c-3.068,13.493-16.838,4.231-16.838,4.231
			L389.881,26.374z"/>
		<path fill="#4D4E53" d="M373.043,45.717l3.141-3.181c0,0,3.615,9.583,16.578,13.398c-3.068,13.492-17.041,6.465-17.041,6.465
			L373.043,45.717z"/>
		<path fill="#4D4E53" d="M641.461,418.468l-7.227,20.099c0,0-16.865-13.189-24.975,2.176c-2.938-13.52,8.402-30.737,8.402-30.737
			L641.461,418.468z"/>
		<path fill="#4D4E53" d="M346.863,574.318l-2.238,11.377c0,0,4.971,3.961,3.648,11.807c11.625-7.499,28.252-20.33,28.252-20.33
			L346.863,574.318z"/>
		<path fill="#4D4E53" d="M357.617,556.159l-6.436,11.371c0,0,2.744,2.623,0.441,9.961c11.625-7.498,19.746-8.639,19.746-8.639
			L357.617,556.159z"/>
	</g>
	<path fill="#D8D3C8" d="M719.211,233.098l-1.719-5.972l-0.816-7.725l-2.5-7.316l-2.502-7.316l-3.564-2.661l-3.57-2.661
		l-8.072-0.584c0,0-9.102-0.926-10.422-1.608c-3.473-1.802-9.01-5.058-10.027-5.994c-0.85-0.788-1.137-1.19-2.92-1.702l-3.041-1.637
		l-7.945-8.121c-9.08-9.277-21.365-18.506-32.262-24.238l-7.506-3.945h-13.057h-13.068l-1.002-1.008l-1.01-1.006l-5.613-0.156
		l-5.609-0.157l-8.037-3.983l-8.033-3.98l-6.717,2.127c-3.691,1.167-7.42,2.586-8.291,3.15l-1.58,1.028l-0.43-3.042l-0.432-3.041
		l-1.189,0.673l-1.189,0.669l-1.377-3.355c-0.76-1.846-1.434-3.79-1.5-4.319c-0.066-0.531-2.182-3.151-4.705-5.826l-4.582-4.859
		l-3.803,0.56l-3.807,0.559v-1.058c0-0.584-1.322-2.291-2.936-3.796l-2.938-2.738h-2.176h-2.182l-2.635-2.448l-2.633-2.452
		l-1.422,0.474l-1.422,0.477l-3.822-1.983l-3.818-1.983l-1.107,0.684l-1.102,0.683v-1.146v-1.146l-7.537-1.581l-7.543-1.581
		l-2.529,1.353c-1.387,0.744-2.521,0.986-2.521,0.543c0-0.446-2.756-0.278-4.166,2.154l-2.48,4.272l-3.029,2.557l-1.344,3.87
		l-2.545,1.36l-3.812,5.16l-2.633,1.407c-3.484,1.865-3.549,1.841-3.785-1.272l-0.205-2.686h2.523h2.523l2.842-2.502
		c0-0.686,1.621-3.096,3.604-5.352l3.598-4.105l0.248-2.41c0.133-1.325,0.684-4.047,1.223-6.043l0.986-3.634l-3.816-0.752
		c-2.105-0.414-6.227-1.298-9.152-1.965l-5.328-1.209l-2.258,1.209l-2.27,1.213l-7.516-1.389l-7.525-1.392l-3.676,1.763
		l-3.674,1.764l-1.35,6.357l-1.35,6.355l-1.344,0.237c-0.74,0.129-4.486,2.245-8.32,4.702c-3.846,2.457-7.768,4.446-8.727,4.424
		l-1.742-0.044l3.703-3.262c2.039-1.796,3.631-3.738,3.537-4.322c-0.1-0.581-0.104-2.451-0.016-4.156l0.158-3.1l6.865-7.261
		c3.779-3.995,7.867-7.581,9.09-7.967l2.217-0.706l2.555-4.737l2.547-4.738l2.963-0.741l2.953-0.743l1.516-3.314
		c0.832-1.826,1.51-4.683,1.51-6.353v-3.035l-1.682-2.298l-1.68-2.298l-3.982-1.065l-3.979-1.063l-3.824-7.743l-3.812-7.741
		l-2.627-12.029l-2.629-12.03l-1.641-2.628l-1.637-2.628h-2.893h-2.887l-0.793,3.189l-0.805,3.19l-5.361,6.49l-5.361,6.49
		l-3.502,7.435c-1.93,4.088-4.447,8.493-5.604,9.785l-2.1,2.35h-3.146h-3.146v-1.11v-1.11l-5.707,0.471
		c-3.141,0.26-7.58,0.813-9.867,1.231l-4.166,0.764l-6.947-3.521l-6.951-3.521l-5.395,1.452l-5.398,1.454l-2.432-0.771l-2.428-0.771
		l-2.1,0.808c-1.152,0.44-2.441,1.696-2.855,2.784l-0.76,1.981l2.26,3.448l2.26,3.449l-4.242-0.931
		c-2.338-0.513-8.039-1.121-12.668-1.353l-8.418-0.419l-3.218,2.528l-3.212,2.532h-2.424h-2.424l-0.832,1.342l-0.832,1.341h-3.02
		h-3.008l-4.402,3.245l-4.396,3.245l-3.604-1.567c-5.321-2.314-8.854-5.148-11.498-9.226l-2.363-3.633l0.932-1.508l0.936-1.509
		l-2.986-2.091l-2.984-2.089l0.842-5.522c0.457-3.036,1.186-7.691,1.615-10.347l0.781-4.826l2.387-1.72l2.385-1.719l-2.094-6.542
		l-2.094-6.543h-3.096h-3.102v-1.36c0-0.75,0.711-2.501,1.581-3.896l1.587-2.534l-2.265-3.454L252.111,0l-4.352,0.752
		c-2.393,0.414-5.059,0.965-5.93,1.226l-1.574,0.472l0.683,2.622l0.688,2.62l-3.047,3.504l-3.041,3.501h-2.623h-2.621l-4.502,2.785
		l-4.507,2.785l-6.601,0.333l-6.6,0.333l-3.482,2.281l-3.481,2.284v2.652v2.653l-1.009-0.03c-0.551-0.017-2.512-1.21-4.363-2.653
		l-3.355-2.625l-6.775-0.03l-6.783-0.03l-1.576-1.573l-1.569-1.572l-3.058-0.237c-1.68-0.13-4.115-0.694-5.404-1.256l-2.354-1.018
		v2.761v2.758l4.7,3.583l4.698,3.584v4.16v4.157l2.249,6.085c1.233,3.35,2.815,6.843,3.515,7.766l1.278,1.678l4.87,0.085
		l4.871,0.085l-2.887,1.163c-1.588,0.639-3.285,1.81-3.769,2.601l-0.894,1.435h-2.633h-2.639l-0.832,4.144l-0.827,4.143
		l-2.159,0.653c-1.186,0.358-3.063,1.203-4.17,1.876c-1.108,0.675-4.105,2.162-6.656,3.308l-4.639,2.08l-3.697,4.314l-3.691,4.316
		l-0.055-3.162l-0.055-3.165l-2.348,0.999c-1.295,0.549-4.562,1.632-7.272,2.402l-4.914,1.405l-4.728-3.604l-4.727-3.601h-1.912
		h-1.917l0.562-3.021l0.557-3.02l-4.221-5.71l-4.221-5.711l-3.867,2.752c-2.126,1.516-4.248,3.369-4.715,4.122l-0.844,1.366
		l-2.65-2.402l-2.655-2.402l-2.247,2.944l-2.248,2.945l-13.322,0.377l-13.332,0.378l0.061,4.024
		c0.033,2.215,0.137,5.353,0.236,6.972l0.182,2.942l5.703,0.413l5.707,0.413l0.463,3.292l0.463,3.292l-2.127-1.769l-2.127-1.766
		l-6.055,1.788l-6.055,1.787v7.67v7.672l4.027,2.867l4.027,2.868v1.876c0,1.029,1.003,3.975,2.227,6.539l2.22,4.661l-2.342,14.512
		c-2.958,18.368-7.245,40.904-7.9,41.565c-0.274,0.276-2.622-0.385-5.2-1.465l-4.705-1.962l-3.008,2.104l-3.004,2.105l-7.564,1.972
		c-8.957,2.342-13.779,4.684-18.049,8.793c-1.729,1.653-4.814,4.221-6.864,5.697l-3.725,2.683l-0.109,4.617l-0.122,4.616
		l-1.791,3.438l-1.795,3.438l-0.028,3.355l-0.032,3.355l-5.311,6.044l-5.317,6.038l0.761,2.446l0.754,2.446l-2.016,2.248L0,246.255
		l3.229,5.365c1.775,2.954,3.77,6.578,4.431,8.056c0.667,1.477,3.724,5.531,6.798,9.013l5.587,6.331l-1.41,2.639
		c-0.782,1.454-1.417,2.986-1.417,3.405v0.76h6.045H29.3l2.688,2.688l2.678,2.684v1.867v1.868l3.339,0.832l3.327,0.837l5.729-0.854
		l5.729-0.86l5.036-4.798l5.03-4.805v12.319v12.319l3.719,1.917l3.725,1.928l3.328-1.84l3.327-1.846l8.298-0.05l8.302-0.044
		l3.642,1.389l3.648,1.383l4.836-3.212c2.656-1.763,6.728-4.347,9.047-5.741c2.314-1.399,7.703-4.958,11.967-7.911
		c12.649-8.749,14.731-9.631,24.996-10.534l7.619-0.661l-0.688,5.598c-0.889,7.229-0.866,8.066,0.528,17.861l1.173,8.237
		l3.956,4.534c2.171,2.49,6.815,6.489,10.313,8.881l6.363,4.341h6.65h6.645l0.826,1.339l0.832,1.345h2.545H201l4.805,3.256
		l4.799,3.262l4.32,0.909l4.318,0.909l3.631,3.41l3.631,3.41l6.688-0.793l6.678-0.793l4.402,2.963l4.402,2.965l0.992,4.683
		l1.002,4.678l-0.502,7.382l-0.5,7.383l2.49,2.684l2.494,2.688l0.314,6.909l0.32,6.908l4.799,0.794
		c2.639,0.44,10.043,0.804,16.451,0.81l11.652,0.017l-1.146,4l-1.146,4l1.267,4.605l1.268,4.606l3.972,1.377l3.973,1.388
		l2.788,4.441l2.799,4.44l-0.805,8.551l-0.805,8.551l-4.104,9.768l-4.104,9.773l3.186,10.171l3.178,10.176l-0.738,8.826
		l-0.743,8.826l0.71,1.068c0.965,1.455,7.438,3.003,15.311,3.658l6.547,0.546l1.883-1.56l1.879-1.564l3.377,1.543
		c1.863,0.849,4.535,1.537,5.945,1.537h2.562l0.814,5.035c0.451,2.771,1.383,6.419,2.072,8.115c0.693,1.697,1.256,5.135,1.256,7.647
		v4.562l3.041,3.531l3.041,3.532l5.582-1.923l5.58-1.923l1.268,0.815c0.695,0.446,1.676,2.127,2.176,3.724l0.91,2.921l-1.543,8.837
		l-1.537,8.837l-1.201,0.738l-1.207,0.749v3.289v3.296l5.344-0.854l5.334-0.854l1.488,3.856c0.82,2.122,1.828,7.058,2.234,10.97
		l0.756,7.106l-1.664,3.108l-1.664,3.106l-7.928,3.791c-4.357,2.082-7.922,4.226-7.922,4.76c0,0.529-2.572,2.507-5.707,4.391
		c-7.01,4.215-13.428,10.893-21.51,22.386c-3.395,4.826-7.482,9.961-9.09,11.41c-1.604,1.448-4.1,4.297-5.555,6.329l-2.633,3.702
		l3.041,1.125l3.035,1.123l3.549-2.038l3.553-2.033l5.059,4.595l5.059,4.596l2.643,5.179l2.645,5.173l3.141-2.953l3.141-2.953
		l2.115,3.229l2.115,3.229l5.355,3.009c2.949,1.657,6.127,4.065,7.064,5.354l1.701,2.347l4.529,1.841l4.529,1.846l1.846,4.419
		l1.846,4.418l2.766,1.477l2.764,1.482l-2.76,4.688l-2.766,4.684v3.168c0,1.746,0.365,4.126,0.816,5.295l0,0
		c1.168,3.045,1.846,2.775,9.277-3.769l6.689-5.885l2.203-4.518c1.211-2.484,2.965-6.524,3.9-8.985l1.691-4.469l8.969-7.162
		c11.652-9.296,14.436-12.727,23.047-28.43l7.168-13.052l9.734-9.966l9.729-9.967V614.9c0-1.201,1.059-4.914,2.348-8.259
		c0,0,1.488-3.256,2.689-6.22l0.33-3.069v-2.914l-1.211,0.744l-1.213,0.749l-1.398-4.021l-1.4-4.027l1.422-7.719
		c0.781-4.248,2.027-8.888,2.771-10.309l1.35-2.584l-2.254-1.647l-2.252-1.647l1.283-0.793l1.283-0.793l0.809,2.109l0.811,2.11
		l3.957-3.124l3.955-3.123l0.072-1.709l0.07-1.708l5.73-3.663c3.15-2.011,7.834-5.278,10.402-7.256
		c2.572-1.978,7.596-4.843,11.16-6.374l6.492-2.783h3.822h3.812l1.83-1.823c1.002-1.003,4.215-2.589,7.141-3.515
		c2.924-0.937,6.225-2.149,7.332-2.694l2.012-0.997l0.021-2.1c0.012-1.156,0.445-2.534,0.969-3.058l0.959-0.958l2.049,1.696
		l2.045,1.697v-1.587v-1.587l1.371,0.849l1.367,0.849l16.941-0.017l16.936-0.017l1.041-1.085c0.574-0.601,1.246-2.596,1.494-4.436
		l0.445-3.35l6.717-2.705c3.691-1.487,7.465-3.189,8.391-3.774l1.674-1.079v-4.661v-4.661l1.963-4.699l1.961-4.699l4.418-4.419
		c2.424-2.436,5.652-5.95,7.162-7.823l2.744-3.395c-2.514-7.537,2.6,1.278,6.541-10.737c0.5-2,1.41-8.083,2.02-13.515l1.109-9.884
		l1.35-9.113l2.115-8.462l6.027,2.997v-6.038l3.834-11.702l3.846-11.713l-1.244-10.634l-1.234-10.633l2.027-5.961l2.027-5.961
		l-1.201-2.149l-1.201-2.143l1.361-0.844l1.359-0.837v-3.735v-3.747l2.602-2.347c2.715-1.168-1.516-6.622-1.125-7.091l2.441-0.699
		l3.764,7.46l3.305-2.639c4.762-4.275,14.545-17.647,17.277-23.614c1.434-3.146,3.443-6.787,4.463-8.104l1.857-2.386
		c3.047-2.761,5.184-3.454,7.629-5.846c2.805-1.174,5.477-2.171,5.939-2.215s2.955-2.722,5.543-5.956l4.693-5.878
		c2.381-0.926,3.963-2.898,6.045-5.587l6.496-8.363c3.568-4.595,6.975-9.57,7.564-11.046c1.459-3.168,0.434-0.954,1.266-6.248
		l0.977-10.165l0.672-9.206C719.992,236.426,720.545,234.993,719.211,233.098z"/>
	<path fill-rule="evenodd" clip-rule="evenodd" fill="#006838" d="M608.438,365.99c-8.23-8.412-9.402-19.861-4.494-25.822
		c-12.32,6.313-14.303,23.503-1.621,39.866c-4.814,2.468-7.359,3.493-11.105,1.41s-7.957-6.226-7.01-11.608
		c-3.447,5.008-6.682,10.611-1.123,19.399c3.373-2.204,17.008-1.268,17.48,9.134c-16.346,21.922-74.404-1.586-107.547,42.373
		c11.281-94.029-6.111-187.827-57.354-253.643c14.07,9.598,43.049,10.738,48.186-3.994c6.258-17.961-4.838-41.387-35.09-67.053
		c-17.801-15.104-25.822-44.662-8.986-58.589c0.518-0.951,0.088-2.909-1.234-3.614c-7.758,2.176-15.514,7.66-17.922,18.187
		c-5.465-9.322,0.941-31.559,13.283-41.079c-0.826-1.966-1.377-2.605-3.064-3.289c-14.57,5.876-25.145,24.388-24.912,41.784
		c-5.207-10.495-14.959-36.922-12.463-46.31c-2.645,0.705-3.234,0.87-5.553,2.468c-4.143,12.466,1.062,44.503,8.512,52.786
		c-6.611-5.699-21.725-27.451-20.236-35.86c-2.678-0.992-5.102-0.433-7.514,0.938c0,20.569,13.16,49.836,36.791,60.888
		c0.506,6.035-10.467,10.338-17.283-0.945c0.115,8.697,2,13.165,11.223,19.923c4.23-3.174,10.93-5.818,19.018-2.428
		c12.811,5.369,15.129,63.367-7.547,31.019c-22.709-32.406-59.072-65.364-108.977-64.493c-6.799,0.115-14.506,3.548-21.988,3.725
		c-16.539,0.394-33.271-4.876-49.514,1.702c-6.654,3.518-9.768,10.209-16.016,14.669c-12.6,8.983-33.52,4.81-41.281,20.087
		c-0.414,3.722-0.613,13.297-1.026,17.021c-14.419,15.195-23.366,35.246-22,54c2.815,4.849,8.141,17.932,12.333,21.667
		c47,7,97.842-4.675,121.477-35.196c19.205-24.807,28.857-2.47,26.488,9.983c-13.168,69.246-88.795,70.173-102.959,72.404
		c-9.873,0.937-15.162-3.647-12.518-12.286c-10.754-1.939-24.307,3.449-33.966,10.92c9.366-3.808,20.831-1.224,19.062,4.176
		c-8.875,2.766-25.822,8.97-29.056,17.564c-0.447,2.931-0.182,5.271,0.766,8.506c4.584-7.846,8.814-10.313,16.451-11.972
		c-6.689,5.608-12.221,13.559-16.716,29.955c1.014,2.418,2.743,3.961,5.642,6.082c1.764-12.958,7.757-18.44,14.545-21.244
		c-3.791,5.377-6.611,14.897-6.082,27.062c1.233,1.94,3.438,2.557,4.996,3.428c0-10.755,3.289-19.206,9.107-25.905
		c-1.118,8.226,1.278,26.285,5.024,32.438c1.764,0.617,3.702,0.266,5.466-1.261c-9.168-29.734,7.416-52.874,22.688-50.538
		c39.547,6.05,124.117-13.636,119.412-57.596c57.506,128.548,1.506,162.146,58.785,269.929c-13.873-6.655-37.475-13.867-53.58-7.994
		c-9.229,9.713-2.43,21.724,2.496,33.161c7.186,16.716,18.93,32.648,32.484,40.599c-2.254,1.802,0.021,0.49-3.691,2.716
		c-1.076-4.198-6.32-7.112-11.107-9.079c-3.416,2.893-4.32,3.614-6.436,11.371c1.939,0.413,5.797,3.207,5.289,5.289
		c-2.314-0.231-7.344,0.628-9.607,1.499c-1.092,3.983-2.732,4.583-2.238,11.288c2.877-0.567,5.174-0.941,7.174,0.26
		c-12.93,7.993-21.529,29.733-18.037,40.466c5.189-11.636,13.822-23.949,23.211-26.473c-4.887,13.024-6.408,42.098,14.23,66.311
		c-21.166-39.314,3.461-83.56,21.299-83.786c-6.324,16.799,10.248,43.244,24.26,52.88c-19.064-35.376-8.723-48.775-8.701-60.565
		c0.035-16.017-15.889-30.291-18.004-37.459c-3.053-10.341,6.16-24.555,20.709,3.846c14.551,28.401,30.176,59.646,53.371,84.02
		c100.811,105.945,231.43,58.55,279.266,3.203c42.01-48.604,54.693-91.244,50.285-167.054
		c-5.422-93.153-43.205-130.628-59.492-204.929C698.938,95.426,773.65,48.356,810.402,32.527
		c-35.354,9.369-122.75,60.312-118.396,196.505c2.799,87.341,68.955,186.57,30.064,275.669
		c-13.371,30.633-49.932,95.181-117.174,92.85c-28.424-0.986-95.566-34.208-96.906-89.874
		c-1.928-80.218,102.785-86.256,107.467-86.08c8.115,0.304,19.658,9.036,18.777,16.97c5.057-0.204,10.875-18.016,7.932-24.506
		c-18.994-41.85,13.4-85.683,26.336-98.068c-30.445,18.732-35.953,28.032-45.375,52.229c-4.408-22.919,8.473-36.571,15.338-44.075
		C624.713,328.73,608.34,349.645,608.438,365.99z"/>
	<g>
		<path fill-rule="evenodd" clip-rule="evenodd" fill="#8DC63F" d="M600.342,396.588c-1.867-8.708-14.084-9.409-17.252-7.34
			c-1.182-1.867-1.945-3.584-2.416-5.189c0.266,3.15,1.215,6.426,3.193,9.554C587.027,391.546,598.525,388.405,600.342,396.588z"/>
		<path fill-rule="evenodd" clip-rule="evenodd" fill="#8DC63F" d="M493.023,440.756c0.215-1.789,0.408-3.575,0.592-5.359
			C493.422,437.183,493.238,438.969,493.023,440.756z"/>
		<path fill-rule="evenodd" clip-rule="evenodd" fill="#8DC63F" d="M509.359,519.766c-1.924-80.212,100.949-93.983,105.633-93.808
			c8.115,0.304,20.129,4.688,19.248,12.621c0.881-7.934-10.662-16.666-18.777-16.969c-4.682-0.177-109.395,5.862-107.467,86.079
			C508.096,511.843,508.57,515.867,509.359,519.766z"/>
		<path fill-rule="evenodd" clip-rule="evenodd" fill="#8DC63F" d="M162.408,220.321c47,7,97.031,4.855,120.668-25.667
			c14.924-19.275,24.787-10.478,27.334,0.246c2.223-12.491-7.426-34.446-26.525-9.776
			C260.25,215.646,209.408,227.321,162.408,220.321z"/>
		<path fill-rule="evenodd" clip-rule="evenodd" fill="#8DC63F" d="M154.805,270.3c9.367-3.807,26.957-5.377,25.189,0.021
			c1.768-5.398-9.697-7.982-19.062-4.176c0.078-0.062,0.164-0.119,0.242-0.181C158.781,267.424,156.617,268.898,154.805,270.3z"/>
		<path fill-rule="evenodd" clip-rule="evenodd" fill="#8DC63F" d="M607.475,364.936c0.318,0.358,0.629,0.72,0.969,1.068
			c-0.057-9.588,5.555-20.743,12.979-29.257C614.111,344.978,608.289,355.669,607.475,364.936z"/>
		<path fill-rule="evenodd" clip-rule="evenodd" fill="#8DC63F" d="M389.84,113.01c1.799,4.954,5.201,9.551,10.902,13.728
			c4.23-3.174,8.912-5.641,17-2.25c7.082,2.969,11.162,20.93,9.566,30.936c2.432-10.645-1.469-31.389-8.885-34.497
			c-8.088-3.391-14.787-0.747-19.018,2.427C394.242,119.568,391.381,116.502,389.84,113.01z"/>
		<path fill-rule="evenodd" clip-rule="evenodd" fill="#8DC63F" d="M194.896,255.226c-0.377-0.067-0.766-0.118-1.164-0.158
			C194.121,255.118,194.516,255.157,194.896,255.226z"/>
		<path fill-rule="evenodd" clip-rule="evenodd" fill="#8DC63F" d="M408.066,574.712c0.016-7.197-2.242-12.414-4.924-16.631
			C405.949,563.217,408.08,568.846,408.066,574.712z"/>
		<path fill-rule="evenodd" clip-rule="evenodd" fill="#8DC63F" d="M602.328,380.047c-8.672-11.189-10.482-22.764-6.824-30.983
			c-4.352,8.761-3.893,21.43,3.645,32.512C600.107,381.169,601.148,380.652,602.328,380.047z"/>
		<path fill-rule="evenodd" clip-rule="evenodd" fill="#8DC63F" d="M334.289,625.199c-0.178,0.383-0.352,0.766-0.521,1.146
			C333.941,625.957,334.115,625.581,334.289,625.199z"/>
		<path fill-rule="evenodd" clip-rule="evenodd" fill="#8DC63F" d="M390.062,537.253c0.623,2.111,2.447,4.843,4.705,8.05l0,0
			c-3.051-10.341,0.092-26.049,14.641,2.352c14.551,28.401,31.539,53.089,54.734,77.463c-23.195-24.374-38.82-55.617-53.371-84.019
			C396.223,512.697,387.01,526.912,390.062,537.253z"/>
		<path fill-rule="evenodd" clip-rule="evenodd" fill="#8DC63F" d="M392.508,582.396c-6.549,0.083-14.014,6.106-19.791,15.637
			c4.752-6.257,10.531-9.976,16.025-10.046c-6.326,16.799,14.014,37.653,28.025,47.29
			C402.756,625.641,386.184,599.195,392.508,582.396z"/>
		<path fill-rule="evenodd" clip-rule="evenodd" fill="#8DC63F" d="M356.979,599.873c-4.816,1.294-9.434,5.169-13.488,10.204
			c2.875-3.108,6.188-5.33,10.252-6.423c-4.887,13.025-3.172,38.316,17.467,62.529C350.57,641.971,352.092,612.897,356.979,599.873z
			"/>
		<path fill-rule="evenodd" clip-rule="evenodd" fill="#8DC63F" d="M483.855,183.119c-5.137,14.731-34.115,13.591-48.186,3.994
			c3.699,4.752,7.203,9.667,10.551,14.7c15.635,2.812,32.588,2.009,37.771-6.326c6.654-10.698,4.994-24.873-2.4-39.629
			C485.961,165.854,486.67,175.041,483.855,183.119z"/>
		<path fill-rule="evenodd" clip-rule="evenodd" fill="#8DC63F" d="M363.328,409.763c-5.23-52.432,7.818-95.943-31.092-182.921
			c4.705,43.959-79.865,63.645-119.412,57.595c39.547,6.05,100.225,5.023,122.188-36.772
			C364.203,331.097,357.242,366.782,363.328,409.763z"/>
	</g>
	<g>
		<g>
			<path fill="#4D4E53" d="M268.994,846.762h-21.995v-57.047c0-4.391-0.229-7.206-0.681-8.444c-0.901-2.585-3.046-3.879-6.43-3.879
				c-4.627,0-9.644,2.413-15.059,7.256v62.114h-21.488v-56.076c0-4.485-0.286-7.516-0.851-9.091
				c-1.026-2.804-3.356-4.203-6.993-4.203c-5.002,0-10,2.184-14.998,6.563v62.807h-21.997v-60.403
				c0-10.939-1.074-18.33-3.214-22.166l20.473-5.587c1.24,2.034,2.253,4.967,3.045,8.801c6.092-5.864,13.141-8.801,21.15-8.801
				c7.107,0,12.972,2.372,17.598,7.11c0.902,1.011,2.03,2.427,3.383,4.229c7.445-7.557,15.625-11.339,24.536-11.339
				c8.683,0,14.89,2.315,18.614,6.939c3.266,4.171,4.906,10.719,4.906,19.627V846.762z"/>
			<path fill="#4D4E53" d="M362.729,803.105c0,13.202-3.213,23.918-9.645,32.149c-6.994,8.912-16.922,13.369-29.777,13.369
				c-12.521,0-22.281-4.457-29.271-13.369c-6.433-8.117-9.645-18.61-9.645-31.468c0-12.861,3.212-23.409,9.645-31.642
				c6.99-9.138,16.75-13.708,29.271-13.708c12.633,0,22.504,4.403,29.609,13.199C359.455,779.758,362.729,790.247,362.729,803.105z
				 M338.025,803.02c0-7.917-0.623-13.859-1.863-17.819c-2.141-6.671-6.316-10.01-12.52-10.01c-5.979,0-10.039,3.453-12.182,10.349
				c-1.24,3.962-1.861,9.903-1.861,17.825c0,8.597,0.564,14.763,1.691,18.494c2.031,7.017,6.262,10.52,12.693,10.52
				C333.342,832.378,338.025,822.594,338.025,803.02z"/>
			<path fill="#4D4E53" d="M438.025,831.029l-5.414,15.732h-63.789v-14.04l40.834-56.18h-37.453V760.64h64.303v15.56l-38.24,54.83
				H438.025z"/>
			<path fill="#4D4E53" d="M474.912,736.272c0,3.95-1.354,7.276-4.061,9.983c-2.707,2.708-6.039,4.06-9.986,4.06
				c-3.832,0-7.105-1.379-9.811-4.143c-2.709-2.766-4.061-6.065-4.061-9.9c0-3.95,1.379-7.274,4.143-9.983
				c2.766-2.709,6.121-4.064,10.066-4.064c3.947,0,7.221,1.355,9.816,4.064C473.611,728.998,474.912,732.322,474.912,736.272z
				 M472.205,846.762h-22.676v-85.271l22.676-3.561V846.762z"/>
			<path fill="#4D4E53" d="M528.211,846.567c-4.061,1.597-8.572,2.396-13.537,2.396c-10.488,0-17.203-3.953-20.137-11.859
				c-1.354-3.617-2.027-10.11-2.027-19.486v-64.72c0-10.165-0.4-18.867-1.184-26.095l23.182-5.252
				c0.787,4.399,1.182,11.903,1.182,22.504v67.512c0,8.688,0,12.92,0,12.691c0.564,5.98,2.594,8.97,6.094,8.97
				c0.898,0,1.748-0.109,2.537-0.339L528.211,846.567z"/>
			<path fill="#4D4E53" d="M573.725,846.567c-4.059,1.597-8.574,2.396-13.533,2.396c-10.492,0-17.205-3.953-20.137-11.859
				c-1.355-3.617-2.027-10.11-2.027-19.486v-64.72c0-10.165-0.396-18.867-1.189-26.095l23.184-5.252
				c0.789,4.399,1.186,11.903,1.186,22.504v67.512c0,8.688,0,12.92,0,12.691c0.562,5.98,2.592,8.97,6.092,8.97
				c0.9,0,1.744-0.109,2.537-0.339L573.725,846.567z"/>
			<path fill="#4D4E53" d="M655.115,837.284l-12.012,13.877c-5.869-2.479-9.932-5.973-12.188-10.486
				c-2.256,2.142-4.004,3.664-5.244,4.563c-4.4,3.16-10.213,4.738-17.428,4.738c-9.252,0-16.412-2.195-21.488-6.58
				c-5.527-4.611-8.291-11.413-8.291-20.414c0-19.789,13.822-29.692,41.471-29.692c1.799,0,3.486,0,5.061,0v-3.513
				c0-4.577-0.564-7.698-1.688-9.376c-1.348-2.236-4.156-3.353-8.426-3.353c-6.975,0-15.285,3.215-24.949,9.647l-9.609-16.246
				c4.064-2.593,8.742-4.959,14.045-7.106c8.35-3.383,16.244-5.073,23.689-5.073c15.113,0,24.42,5.017,27.92,15.057
				c1.125,3.271,1.633,8.459,1.521,15.567l-0.51,30.628c0,4.507,0.447,7.896,1.355,10.148
				C649.475,832.269,651.73,834.809,655.115,837.284z M624.488,808.86h-1.002c-6.775,0-11.496,0.564-14.162,1.692
				c-4.443,1.919-6.664,5.755-6.664,11.507c0,3.158,0.869,5.836,2.621,8.034c1.752,2.201,4.205,3.305,7.363,3.305
				c4.283,0,8.232-1.976,11.844-5.926V808.86z"/>
		</g>
		<g>
			<path fill="#4D4E53" d="M286.186,920.451c0,12.643-8.566,18.968-25.701,18.968h-27.322v-66.996h29.445
				c6.319,0,11.372,1.518,15.157,4.555c3.787,3.038,5.675,7.127,5.675,12.29c0,7.066-3.203,11.928-9.603,14.593
				C282.072,907.189,286.186,912.719,286.186,920.451z M266.35,892.008c0-4.321-2.869-6.49-8.607-6.49h-8.109v12.732h7.357
				c3.58,0,6.033-0.482,7.365-1.438C265.682,895.86,266.35,894.256,266.35,892.008z M267.348,918.582
				c0-4.826-3.162-7.235-9.48-7.235h-7.863v15.223h7.863C264.186,926.569,267.348,923.904,267.348,918.582z"/>
			<path fill="#4D4E53" d="M355.547,939.419H335.84c-1.5-2.164-3.912-5.907-7.24-11.229c-4.072-6.901-6.754-11.248-8.045-13.04
				c-1.291-1.781-2.436-2.685-3.428-2.685l-1.123,0.127v26.827H299.66v-67.123h25.947c8.896,0,15.305,1.916,19.211,5.739
				c3.91,3.827,5.867,8.694,5.867,14.593c0,4.578-1.354,8.655-4.055,12.229c-2.705,3.576-5.887,5.738-9.545,6.489
				C341.24,916.086,347.398,925.444,355.547,939.419z M333.342,892.628c0-2.821-0.852-4.861-2.555-6.11
				c-1.709-1.247-4.764-1.869-9.17-1.869h-5.738v15.847h5.486c4.408,0,7.506-0.629,9.295-1.872
				C332.445,897.374,333.342,895.376,333.342,892.628z"/>
			<path fill="#4D4E53" d="M422.17,939.419h-17.592l-5.117-14.225h-19.834l-4.742,14.225h-17.59l24.703-67.247h16.965
				L422.17,939.419z M395.719,912.845c-2.742-10.233-4.695-18.504-5.857-24.829c-1.336,6.325-3.414,14.596-6.242,24.829H395.719z"/>
			<path fill="#4D4E53" d="M482.674,917.459c0,7.074-2.889,12.744-8.67,17.029c-5.783,4.282-13.455,6.424-23.016,6.424
				c-8.57,0-16.764-1.872-24.58-5.614l5.49-12.722c7.736,3.327,14.385,4.985,19.963,4.985c7.9,0,11.852-2.2,11.852-6.605
				c0-3.662-2.916-6.156-8.732-7.488l-8.486-1.996c-11.559-2.748-17.338-9.359-17.338-19.837c0-6.237,2.533-11.352,7.607-15.342
				c5.072-3.997,11.604-5.993,19.584-5.993c10.232,0,18.801,2.292,25.703,6.862l-7.859,11.604c-6.32-3.328-12.148-4.99-17.465-4.99
				c-2.664,0-4.828,0.558-6.49,1.682c-1.664,1.121-2.494,2.605-2.494,4.429c0,1.669,0.479,2.915,1.436,3.747
				c0.955,0.828,2.807,1.58,5.551,2.245l8.984,2.119C476.352,900.991,482.674,907.479,482.674,917.459z"/>
			<path fill="#4D4E53" d="M515.357,939.419H498.02v-66.871h17.338V939.419z"/>
			<path fill="#4D4E53" d="M577.24,925.941l-3.498,13.478H534.57v-66.871h16.84l0.129,53.394H577.24z"/>
		</g>
	</g>
	<g>
		<path fill-rule="evenodd" clip-rule="evenodd" fill="#8DC63F" d="M799.316,36.234l0.82,1.126c1.072-0.555,2.131-1.089,3.168-1.595
			l-0.576-0.828C801.619,35.34,800.482,35.769,799.316,36.234z"/>
		<path fill-rule="evenodd" clip-rule="evenodd" fill="#8DC63F" d="M786.279,45.535c1.176-0.788,2.344-1.542,3.504-2.27
			l-1.529-2.001c-1.246,0.635-2.512,1.309-3.791,2.007L786.279,45.535z"/>
		<path opacity="0.2" fill-rule="evenodd" clip-rule="evenodd" fill="#8DC63F" d="M787.973,416.136
			c-0.264-1.314-0.533-2.617-0.811-3.908l-54.439,5.328c0.201,1.73,0.387,3.461,0.551,5.189L787.973,416.136z"/>
		<path opacity="0.6" fill-rule="evenodd" clip-rule="evenodd" fill="#8DC63F" d="M779.674,383.91
			c-0.477-1.513-0.961-3.01-1.451-4.497l-52.318,0.054c0.447,1.937,0.879,3.873,1.301,5.809L779.674,383.91z"/>
		<path opacity="0.3" fill-rule="evenodd" clip-rule="evenodd" fill="#8DC63F" d="M786.293,408.294
			c-0.309-1.355-0.623-2.701-0.945-4.032l-53.863,4.01c0.266,1.771,0.518,3.543,0.75,5.313L786.293,408.294z"/>
		<path opacity="0.5" fill-rule="evenodd" clip-rule="evenodd" fill="#8DC63F" d="M782.16,392.204
			c-0.416-1.453-0.836-2.896-1.266-4.324l-52.84,1.376c0.391,1.875,0.766,3.749,1.125,5.623L782.16,392.204z"/>
		<path opacity="0.4" fill-rule="evenodd" clip-rule="evenodd" fill="#8DC63F" d="M784.367,400.323
			c-0.361-1.403-0.73-2.791-1.105-4.17l-53.34,2.693c0.33,1.82,0.645,3.641,0.941,5.459L784.367,400.323z"/>
		<path fill-rule="evenodd" clip-rule="evenodd" fill="#8DC63F" d="M793.219,41.175c1.131-0.665,2.25-1.299,3.355-1.91l-1.049-1.44
			c-1.182,0.517-2.385,1.066-3.609,1.646L793.219,41.175z"/>
		<path fill-rule="evenodd" clip-rule="evenodd" fill="#8DC63F" d="M747.986,85.399c1.068-1.748,2.158-3.448,3.271-5.095
			l-6.613-6.412c-1.418,1.474-2.826,2.99-4.223,4.552L747.986,85.399z"/>
		<path fill-rule="evenodd" clip-rule="evenodd" fill="#8DC63F" d="M742.889,94.525c0.979-1.922,1.984-3.79,3.018-5.604
			l-8.117-7.464c-1.395,1.631-2.775,3.302-4.141,5.024L742.889,94.525z"/>
		<path fill-rule="evenodd" clip-rule="evenodd" fill="#8DC63F" d="M753.582,76.986c1.137-1.571,2.291-3.101,3.463-4.576
			l-5.338-5.452c-1.424,1.318-2.842,2.683-4.256,4.085L753.582,76.986z"/>
		<path fill-rule="evenodd" clip-rule="evenodd" fill="#8DC63F" d="M779.375,50.488c1.205-0.924,2.408-1.814,3.607-2.67
			l-2.051-2.558c-1.305,0.759-2.625,1.554-3.953,2.379L779.375,50.488z"/>
		<path fill-rule="evenodd" clip-rule="evenodd" fill="#8DC63F" d="M772.578,56.076c1.217-1.072,2.436-2.109,3.658-3.106
			l-2.658-3.158c-1.354,0.889-2.717,1.815-4.086,2.775L772.578,56.076z"/>
		<path fill-rule="evenodd" clip-rule="evenodd" fill="#8DC63F" d="M765.959,62.337c1.211-1.23,2.43-2.426,3.654-3.574l-3.389-3.831
			c-1.389,1.025-2.785,2.094-4.182,3.194L765.959,62.337z"/>
		<path fill-rule="evenodd" clip-rule="evenodd" fill="#8DC63F" d="M759.6,69.301c1.184-1.398,2.381-2.758,3.59-4.067l-4.271-4.593
			c-1.414,1.169-2.828,2.385-4.24,3.633L759.6,69.301z"/>
		<path fill-rule="evenodd" clip-rule="evenodd" fill="#8DC63F" d="M731.297,242.099l-39.35-15.046
			c0.016,0.658,0.021,1.306,0.043,1.968c0.07,2.222,0.193,4.452,0.344,6.688l40.475,14.102
			C732.277,247.211,731.771,244.638,731.297,242.099z"/>
		<path fill-rule="evenodd" clip-rule="evenodd" fill="#8DC63F" d="M729.166,229.621l-37.271-15.551
			c-0.051,2.853-0.076,5.73-0.041,8.664l38.621,14.768C730.008,234.843,729.57,232.214,729.166,229.621z"/>
		<path opacity="0.7" fill-rule="evenodd" clip-rule="evenodd" fill="#8DC63F" d="M776.881,375.414
			c-0.539-1.576-1.088-3.139-1.641-4.69l-51.76-1.27c0.504,2.004,0.998,4.009,1.479,6.014L776.881,375.414z"/>
		<path fill-rule="evenodd" clip-rule="evenodd" fill="#8DC63F" d="M766.666,348.405c-0.736-1.809-1.475-3.611-2.217-5.408
			l-49.559-5.19c0.639,2.245,1.275,4.491,1.906,6.74L766.666,348.405z"/>
		<path opacity="0.8" fill-rule="evenodd" clip-rule="evenodd" fill="#8DC63F" d="M771.941,361.779l-51.123-2.59
			c0.555,2.078,1.102,4.158,1.637,6.238l51.324,1.259C773.172,365.039,772.559,363.404,771.941,361.779z"/>
		<path fill-rule="evenodd" clip-rule="evenodd" fill="#8DC63F" d="M738.354,104.338c0.871-2.09,1.777-4.118,2.713-6.096
			l-9.867-8.59c-1.352,1.788-2.684,3.623-3.994,5.507L738.354,104.338z"/>
		<path fill-rule="evenodd" clip-rule="evenodd" fill="#8DC63F" d="M713.709,333.661l49,5.131c-0.789-1.898-1.58-3.795-2.371-5.691
			l-48.635-6.454C712.371,328.982,713.041,331.32,713.709,333.661z"/>
		<path opacity="0.9" fill-rule="evenodd" clip-rule="evenodd" fill="#8DC63F" d="M719.725,355.129l50.645,2.565
			c-0.674-1.726-1.352-3.439-2.035-5.147l-50.389-3.899C718.545,350.807,719.137,352.967,719.725,355.129z"/>
		<path fill-rule="evenodd" clip-rule="evenodd" fill="#8DC63F" d="M754.307,318.505c-0.848-2.086-1.689-4.181-2.523-6.289
			l-46.605-8.886c0.682,2.523,1.375,5.052,2.078,7.583L754.307,318.505z"/>
		<path fill-rule="evenodd" clip-rule="evenodd" fill="#8DC63F" d="M758.559,328.83c-0.828-1.992-1.654-3.987-2.477-5.987
			l-47.639-7.687c0.682,2.43,1.371,4.861,2.064,7.297L758.559,328.83z"/>
		<path fill-rule="evenodd" clip-rule="evenodd" fill="#8DC63F" d="M806.973,34.032c1.168-0.534,2.309-1.04,3.414-1.516
			c-1.182,0.312-2.424,0.676-3.717,1.083L806.973,34.032z"/>
		<path opacity="0.1" fill-rule="evenodd" clip-rule="evenodd" fill="#8DC63F" d="M789.418,423.87
			c-0.223-1.277-0.451-2.542-0.684-3.797l-55.119,6.659c0.131,1.696,0.25,3.391,0.342,5.084L789.418,423.87z"/>
		<path fill-rule="evenodd" clip-rule="evenodd" fill="#8DC63F" d="M726.76,149.345c0.328-2.6,0.695-5.148,1.105-7.638
			l-19.027-13.114c-1.002,2.374-1.965,4.806-2.895,7.282L726.76,149.345z"/>
		<path fill-rule="evenodd" clip-rule="evenodd" fill="#8DC63F" d="M725.723,199.617c-0.193-2.758-0.346-5.466-0.463-8.136
			l-29.922-15.783c-0.463,2.758-0.879,5.569-1.254,8.423L725.723,199.617z"/>
		<path fill-rule="evenodd" clip-rule="evenodd" fill="#8DC63F" d="M725.092,186.87c-0.078-2.752-0.117-5.458-0.115-8.115
			l-27.207-15.406c-0.607,2.691-1.182,5.421-1.701,8.211L725.092,186.87z"/>
		<path fill-rule="evenodd" clip-rule="evenodd" fill="#8DC63F" d="M725.561,161.642c0.186-2.676,0.42-5.291,0.689-7.861
			l-21.711-14.048c-0.879,2.496-1.727,5.037-2.527,7.637L725.561,161.642z"/>
		<path fill-rule="evenodd" clip-rule="evenodd" fill="#8DC63F" d="M725.023,174.185c0.049-2.723,0.127-5.411,0.26-8.032
			l-24.455-14.823c-0.746,2.601-1.441,5.262-2.105,7.963L725.023,174.185z"/>
		<path fill-rule="evenodd" clip-rule="evenodd" fill="#8DC63F" d="M731.199,125.834c0.613-2.381,1.256-4.717,1.945-6.983
			l-14.041-10.914c-1.211,2.096-2.395,4.241-3.547,6.438L731.199,125.834z"/>
		<path fill-rule="evenodd" clip-rule="evenodd" fill="#8DC63F" d="M728.633,137.378c0.473-2.504,0.988-4.946,1.541-7.337
			l-16.461-12.059c-1.115,2.241-2.203,4.526-3.252,6.87L728.633,137.378z"/>
		<path fill-rule="evenodd" clip-rule="evenodd" fill="#8DC63F" d="M734.439,114.789c0.748-2.244,1.537-4.423,2.355-6.554
			l-11.848-9.753c-1.287,1.943-2.551,3.942-3.791,5.984L734.439,114.789z"/>
		<path fill-rule="evenodd" clip-rule="evenodd" fill="#8DC63F" d="M745.947,296.778c-0.811-2.262-1.605-4.547-2.385-6.86
			l-44.547-11.201c0.609,2.702,1.248,5.411,1.908,8.126L745.947,296.778z"/>
		<path fill-rule="evenodd" clip-rule="evenodd" fill="#8DC63F" d="M726.869,212.35c-0.299-2.742-0.557-5.438-0.781-8.1
			l-32.527-15.931c-0.322,2.808-0.596,5.665-0.83,8.564L726.869,212.35z"/>
		<path fill-rule="evenodd" clip-rule="evenodd" fill="#8DC63F" d="M750.062,307.815c-0.842-2.177-1.674-4.369-2.494-6.583
			l-45.57-10.057c0.658,2.615,1.338,5.237,2.031,7.863L750.062,307.815z"/>
		<path fill-rule="evenodd" clip-rule="evenodd" fill="#8DC63F" d="M738.559,273.779c-0.678-2.408-1.338-4.85-1.973-7.333
			l-42.389-13.364c0.41,2.834,0.867,5.678,1.367,8.531L738.559,273.779z"/>
		<path fill-rule="evenodd" clip-rule="evenodd" fill="#8DC63F" d="M742.078,285.421c-0.754-2.338-1.488-4.71-2.205-7.112
			l-43.508-12.312c0.527,2.776,1.094,5.562,1.691,8.354L742.078,285.421z"/>
		<path fill-rule="evenodd" clip-rule="evenodd" fill="#8DC63F" d="M728.475,224.998c-0.391-2.708-0.744-5.379-1.066-8.013
			l-34.984-15.85c-0.184,2.841-0.332,5.715-0.43,8.642L728.475,224.998z"/>
		<path fill-rule="evenodd" clip-rule="evenodd" fill="#8DC63F" d="M735.465,261.898c-0.439-1.841-0.871-3.697-1.285-5.584
			c-0.143-0.651-0.268-1.284-0.406-1.932l-41.102-14.32c0.254,2.868,0.564,5.748,0.932,8.639L735.465,261.898z"/>
	</g>
</g>
</svg>
